<svg xmlns="http://www.w3.org/2000/svg" xml:space="preserve" id="Camada_1" x="0" y="0" version="1.1" viewBox="0 0 100 100">
<style>.st1{fill:#fff}</style>
<path d="M6.4 49.9c.1-23.6 19.4-42.8 43-42.7 23.3.2 42.6 19.6 42.5 42.9 0 23.5-19.4 42.7-43.1 42.6-23.4 0-42.4-19.3-42.4-42.8z M49.6 18.4c17.6.2 31.5 14.5 31.2 32-.3 17.7-14.3 31.3-32.1 31.1-17.7-.2-31.5-14.3-31.2-32 .3-17.6 14.4-31.3 32.1-31.1z" class="icon-color"/>
<path d="M71.1 50c0 12.3-9.9 22.2-22.1 22.1C36.8 72 26.9 62 27.1 49.8 27.2 37.8 37 28 49 27.9c12.1-.1 22.1 9.9 22.1 22.1z" class="icon-color"/>
<path d="M49.3 39c5.9.1 10.9 5.1 10.9 11 0 6.2-5 11.1-11.2 11.1-6.2-.1-11-5.1-10.8-11.4.2-6 5.2-10.8 11.1-10.7z" class="st1"/>
</svg>
