<?xml version="1.0" encoding="utf-8"?>
<!-- Generator: Adobe Illustrator 25.2.1, SVG Export Plug-In . SVG Version: 6.00 Build 0)  -->
<svg version="1.1" id="Camada_1" xmlns="http://www.w3.org/2000/svg" xmlns:xlink="http://www.w3.org/1999/xlink" x="0px" y="0px"
	 viewBox="0 0 100 100" style="enable-background:new 0 0 100 100;" xml:space="preserve">
<style type="text/css">
	.st0{fill:red;}
</style>
<g>
	<path class="st0" d="M29.5,40.4c13.3,0,25.9,0,38.5,0c1.2,0,2.4,0,1.6,1.8c-6.4,15-12.9,29.9-19.7,45.8
		C42.9,71.8,36.3,56.4,29.5,40.4z"/>
	<path class="st0" d="M49.6,35.8c-5.6,0-11.2-0.1-16.8,0c-2.3,0.1-3.2-0.3-2.1-2.8c2.8-6.2,5.6-12.5,8.1-18.8c0.7-1.6,1.6-2,3.1-2
		c5.2,0,10.5,0.1,15.7,0c1.5,0,2.5,0.3,3.2,1.9c2.7,6.5,5.5,13.1,8.4,19.5c1,2.2-0.1,2.2-1.7,2.2C61.6,35.8,55.6,35.8,49.6,35.8z"/>
	<path class="st0" d="M83.3,35.8c-4.6,1.4-7.2-1.2-8.8-6.2c-1.7-5.1-4-9.9-6.2-14.8c-0.9-2.1-0.4-2.4,1.7-2.6
		c6.2-0.8,10.6,0.6,13.1,7.1c1.9,4.8,5,9.2,7.7,13.7c1.3,2.1,1.3,3.1-1.6,2.9C87.4,35.7,85.8,35.8,83.3,35.8z"/>
	<path class="st0" d="M15.1,35.8c-7.3,0-7.4,0-3.8-6.3c2.5-4.6,5.3-9,7.6-13.7c1.4-2.7,3-3.7,6.1-3.6c7.8,0.2,7.8,0.1,4.6,7.2
		c-1.7,4-3.8,7.9-5.1,12c-1.2,3.6-3.1,5.1-6.8,4.4C16.9,35.7,16,35.8,15.1,35.8z"/>
	<path class="st0" d="M7.8,40.4c4.9,0,8.8,0,12.8,0c1.1,0,1.9,0.1,2.5,1.2c5.8,11.9,11.6,23.9,16.8,36.3
		C29.3,65.6,18.9,53.4,7.8,40.4z"/>
	<path class="st0" d="M60.8,74.9C66,64,71.3,53.2,76.5,42.3c0.7-1.5,1.6-1.9,3.2-1.9c3.9,0.1,7.7,0,12.6,0
		C81.7,52.6,71.7,64.2,61.7,75.8C60.9,75.9,60.6,75.7,60.8,74.9z"/>
	<path class="st0" d="M60.8,74.9c0.3,0.3,0.6,0.6,0.9,0.9c-0.4,0.9-1,1.6-2,1.9C59.4,76.4,60.1,75.6,60.8,74.9z"/>
</g>
</svg>
