<?xml version="1.0" encoding="utf-8"?>
<!-- Generator: Adobe Illustrator 25.2.1, SVG Export Plug-In . SVG Version: 6.00 Build 0)  -->
<svg version="1.1" id="Camada_1" xmlns="http://www.w3.org/2000/svg" xmlns:xlink="http://www.w3.org/1999/xlink" x="0px" y="0px"
	 viewBox="0 0 100 100" style="enable-background:new 0 0 100 100;" xml:space="preserve">
<style type="text/css">
	.st0{fill:#0d6efd;}
	.st1{fill:#FFFFFF;}
</style>
<path class="st0" d="M49.6,80.9C30,79.9,15,71,5,53.9c-1.5-2.7-1.6-5.1-0.1-7.7c10.1-17.2,24.9-27,44.9-27.1
	C70,19,84.8,28.8,95,45.9c1.8,3,1.5,5.6-0.2,8.5C84.5,71.4,69.5,80.1,49.6,80.9z"/>
<path class="st1" d="M73.2,50.2c-0.1,12.5-10.8,23.3-22.7,23.1C37,73,26.8,62.7,26.9,49.4c0.1-12.6,10.8-23,23.3-22.8
	C63,26.7,73.3,37.3,73.2,50.2z"/>
<path class="st0" d="M49.9,65.2c-8.5-0.1-15.5-7.1-15.4-15.5c0-2.1,0-3.5,3.1-2.8c6.6,1.4,10.6-2.8,9.2-9.6
	c-0.6-2.7,0.7-2.7,2.5-2.8C58,34.1,65.4,41,65.6,49.6C65.8,58.2,58.7,65.3,49.9,65.2z"/>
</svg>
