<svg width="249" height="47" viewBox="0 0 249 47" fill="none" xmlns="http://www.w3.org/2000/svg">
<path d="M80.0265 36.6346C80.0265 38.0472 79.8039 39.2772 79.3588 40.3228C78.9136 41.3701 78.2885 42.2425 77.4866 42.9417C76.6831 43.6394 75.725 44.1638 74.6121 44.5118C73.4992 44.8614 72.2742 45.0346 70.9388 45.0346C70.271 45.0346 69.5702 44.9984 68.8393 44.9276C68.1068 44.8567 67.4628 44.7496 66.9071 44.6063V28.7071C67.4644 28.548 68.1084 28.4331 68.8393 28.3622C69.5702 28.2913 70.271 28.2551 70.9388 28.2551C72.2742 28.2551 73.4992 28.4299 74.6121 28.7779C75.725 29.1276 76.6831 29.6504 77.4866 30.348C78.2901 31.0472 78.9136 31.9181 79.3588 32.9653C79.8039 34.0126 80.0265 35.2346 80.0265 36.6299V36.6346ZM68.5283 43.4646C68.623 43.4803 68.8661 43.5118 69.256 43.559C69.6459 43.6063 70.2695 43.6299 71.1282 43.6299C72.3216 43.6299 73.3619 43.4677 74.2537 43.1417C75.144 42.8173 75.8923 42.3527 76.4969 41.7496C77.1015 41.1464 77.5545 40.4126 77.8576 39.548C78.1591 38.6835 78.3106 37.7118 78.3106 36.6331C78.3106 35.5543 78.1591 34.5858 77.8576 33.7291C77.5545 32.8724 77.1015 32.1433 76.4969 31.5402C75.8923 30.937 75.1456 30.4724 74.2537 30.148C73.3634 29.8236 72.3216 29.6598 71.1282 29.6598C70.2695 29.6598 69.6459 29.6835 69.256 29.7307C68.8661 29.7779 68.623 29.811 68.5283 29.8252V43.463V43.4646Z" fill="#2E2D2C"/>
<path d="M82.8174 38.7291C82.8174 37.6504 82.9721 36.7102 83.2831 35.9087C83.5941 35.1071 83.9982 34.4378 84.5001 33.8976C85.0005 33.3591 85.5736 32.9575 86.2176 32.6961C86.8617 32.4346 87.5262 32.3039 88.2098 32.3039C89.7204 32.3039 90.9249 32.7953 91.8247 33.7795C92.7229 34.7638 93.1727 36.2787 93.1727 38.326C93.1727 38.4535 93.168 38.5795 93.1601 38.7071C93.1522 38.8346 93.1396 38.9528 93.1238 39.0646H84.4638C84.5112 40.5717 84.8853 41.7307 85.5846 42.5386C86.2839 43.348 87.3984 43.7528 88.9248 43.7528C89.7678 43.7528 90.4355 43.674 90.928 43.515C91.4205 43.3559 91.7789 43.222 92.0014 43.1102L92.2872 44.4425C92.0646 44.5701 91.6463 44.7197 91.0354 44.8945C90.4229 45.0693 89.7031 45.1559 88.8759 45.1559C87.7946 45.1559 86.8711 44.9969 86.1087 44.6803C85.3447 44.3638 84.7164 43.9181 84.2239 43.348C83.7314 42.7764 83.3731 42.0992 83.1505 41.3134C82.9279 40.5276 82.8158 39.6677 82.8158 38.7307L82.8174 38.7291ZM91.5737 37.7528C91.5421 36.4677 91.239 35.4677 90.6676 34.7543C90.0946 34.0409 89.2832 33.6835 88.2334 33.6835C87.6762 33.6835 87.179 33.7953 86.7417 34.0173C86.3044 34.2394 85.9224 34.537 85.5957 34.9102C85.2689 35.2835 85.0148 35.7165 84.8316 36.2079C84.6485 36.6992 84.5412 37.2158 84.5096 37.7543H91.5721L91.5737 37.7528Z" fill="#2E2D2C"/>
<path d="M99.1586 43.7984C100.049 43.7984 100.785 43.652 101.365 43.3575C101.946 43.0646 102.237 42.5685 102.237 41.8693C102.237 41.5354 102.185 41.2504 102.082 41.0126C101.978 40.7748 101.807 40.5606 101.569 40.3701C101.331 40.1795 101.017 39.9969 100.627 39.8236C100.237 39.6488 99.7553 39.4425 99.1839 39.2047C98.7229 39.0142 98.2857 38.8205 97.8721 38.622C97.4585 38.4236 97.0923 38.1937 96.775 37.9323C96.4561 37.6709 96.202 37.3575 96.011 36.9921C95.82 36.6268 95.7253 36.1827 95.7253 35.6598C95.7253 34.6598 96.1025 33.8504 96.8587 33.2315C97.6132 32.6126 98.6519 32.3039 99.9716 32.3039C100.815 32.3039 101.511 32.3748 102.058 32.5181C102.608 32.6614 102.993 32.7874 103.216 32.8992L102.857 34.2803C102.666 34.1858 102.344 34.0583 101.891 33.8992C101.438 33.7402 100.773 33.6614 99.899 33.6614C99.5485 33.6614 99.2186 33.6976 98.9092 33.7685C98.5982 33.8394 98.3252 33.9512 98.0868 34.1024C97.8484 34.2535 97.6574 34.4441 97.5138 34.674C97.3701 34.9039 97.2991 35.1858 97.2991 35.5197C97.2991 35.8535 97.3622 36.1402 97.4901 36.378C97.618 36.6173 97.8042 36.8268 98.0505 37.0094C98.2967 37.1921 98.5998 37.3622 98.9566 37.5197C99.3149 37.6772 99.7237 37.852 100.185 38.0409C100.661 38.2299 101.119 38.4236 101.556 38.6205C101.994 38.8173 102.379 39.0551 102.714 39.3339C103.048 39.611 103.318 39.9449 103.525 40.3339C103.732 40.7228 103.834 41.211 103.834 41.7969C103.834 42.9071 103.418 43.748 102.583 44.3197C101.747 44.8913 100.606 45.1764 99.1586 45.1764C98.0773 45.1764 97.2502 45.085 96.6771 44.9024C96.1041 44.7197 95.7237 44.5811 95.5327 44.4866L95.9384 43.0819C95.9857 43.1134 96.0899 43.1654 96.2493 43.2362C96.4088 43.3071 96.6235 43.3874 96.8934 43.474C97.1633 43.5606 97.4854 43.6362 97.8595 43.7008C98.2336 43.7638 98.6661 43.7953 99.1602 43.7953L99.1586 43.7984Z" fill="#2E2D2C"/>
<path d="M106.101 38.7291C106.101 37.6504 106.256 36.7102 106.567 35.9087C106.878 35.1071 107.282 34.4378 107.784 33.8976C108.284 33.3591 108.857 32.9575 109.501 32.6961C110.145 32.4346 110.81 32.3039 111.493 32.3039C113.004 32.3039 114.209 32.7953 115.108 33.7795C116.007 34.7638 116.456 36.2787 116.456 38.326C116.456 38.4535 116.452 38.5795 116.444 38.7071C116.436 38.8346 116.423 38.9528 116.408 39.0646H107.748C107.795 40.5717 108.169 41.7307 108.868 42.5386C109.568 43.348 110.682 43.7528 112.209 43.7528C113.052 43.7528 113.719 43.674 114.212 43.515C114.704 43.3559 115.063 43.222 115.285 43.1102L115.571 44.4425C115.348 44.5701 114.93 44.7197 114.319 44.8945C113.707 45.0693 112.987 45.1559 112.16 45.1559C111.078 45.1559 110.155 44.9969 109.392 44.6803C108.628 44.3638 108 43.9181 107.508 43.348C107.015 42.7764 106.657 42.0992 106.434 41.3134C106.212 40.5276 106.1 39.6677 106.1 38.7307L106.101 38.7291ZM114.857 37.7528C114.826 36.4677 114.523 35.4677 113.951 34.7543C113.378 34.0409 112.567 33.6835 111.517 33.6835C110.96 33.6835 110.463 33.7953 110.025 34.0173C109.588 34.2394 109.206 34.537 108.879 34.9102C108.553 35.2835 108.298 35.7165 108.115 36.2079C107.932 36.6992 107.825 37.2158 107.793 37.7543H114.856L114.857 37.7528Z" fill="#2E2D2C"/>
<path d="M119.913 33.0173C120.374 32.8898 120.995 32.748 121.775 32.589C122.554 32.4299 123.508 32.3512 124.637 32.3512C125.574 32.3512 126.359 32.4866 126.987 32.7559C127.615 33.0252 128.116 33.411 128.49 33.9102C128.864 34.4095 129.129 35.0095 129.289 35.7071C129.448 36.4063 129.527 37.1748 129.527 38.0157V44.8945H127.977V38.5165C127.977 37.6441 127.917 36.9071 127.798 36.3039C127.678 35.7008 127.48 35.2095 127.202 34.8283C126.924 34.4472 126.558 34.1732 126.105 34.0079C125.652 33.8409 125.082 33.7575 124.398 33.7575C123.667 33.7575 123.034 33.7969 122.501 33.8772C121.967 33.9575 121.621 34.0283 121.464 34.0913V44.8961H119.913V33.0205V33.0173Z" fill="#2E2D2C"/>
<path d="M137.221 43.2268C137.555 42.5449 137.898 41.7638 138.25 40.8819C138.6 40.0016 138.94 39.0898 139.267 38.1449C139.593 37.2016 139.896 36.2488 140.176 35.2898C140.455 34.3291 140.69 33.4299 140.881 32.589H142.433C142.144 33.715 141.825 34.8268 141.473 35.9213C141.121 37.0157 140.749 38.0866 140.357 39.1339C139.964 40.1811 139.557 41.189 139.132 42.1559C138.708 43.1244 138.296 44.0362 137.896 44.8929H136.45C136.034 44.0362 135.617 43.1244 135.202 42.1559C134.787 41.1874 134.383 40.1811 133.989 39.1339C133.598 38.0866 133.225 37.0157 132.873 35.9213C132.521 34.8268 132.201 33.7165 131.914 32.589H133.56C133.751 33.4299 133.986 34.3307 134.266 35.2898C134.545 36.2504 134.848 37.2016 135.175 38.1449C135.502 39.0898 135.841 40.0016 136.192 40.8819C136.542 41.7622 136.886 42.5433 137.221 43.2268Z" fill="#2E2D2C"/>
<path d="M155.459 38.7528C155.459 39.7213 155.321 40.6016 155.043 41.3953C154.765 42.189 154.375 42.863 153.873 43.4189C153.373 43.9748 152.779 44.4063 152.096 44.7165C151.412 45.0268 150.656 45.1811 149.829 45.1811C149.002 45.1811 148.245 45.0268 147.562 44.7165C146.878 44.4079 146.285 43.9748 145.784 43.4189C145.284 42.863 144.894 42.189 144.616 41.3953C144.339 40.6016 144.2 39.7213 144.2 38.7528C144.2 37.7843 144.339 36.9039 144.616 36.1102C144.894 35.3165 145.284 34.6394 145.784 34.0756C146.285 33.5134 146.878 33.0756 147.562 32.7669C148.245 32.4567 149.002 32.3024 149.829 32.3024C150.656 32.3024 151.41 32.4567 152.096 32.7669C152.779 33.0756 153.373 33.5134 153.873 34.0756C154.373 34.6394 154.763 35.3181 155.043 36.1102C155.321 36.9039 155.459 37.7843 155.459 38.7528ZM153.813 38.7528C153.813 37.2142 153.455 35.989 152.74 35.0756C152.024 34.1638 151.054 33.7071 149.829 33.7071C148.604 33.7071 147.635 34.1638 146.918 35.0756C146.203 35.9874 145.844 37.2142 145.844 38.7528C145.844 40.2913 146.203 41.5134 146.918 42.4173C147.633 43.3213 148.604 43.7748 149.829 43.7748C151.054 43.7748 152.023 43.3228 152.74 42.4173C153.455 41.5134 153.813 40.2913 153.813 38.7528Z" fill="#2E2D2C"/>
<path d="M161.949 45.1071C161.423 45.0913 160.967 45.0236 160.577 44.9055C160.187 44.7858 159.862 44.6047 159.598 44.3575C159.336 44.1118 159.137 43.7937 159.002 43.4063C158.866 43.0173 158.798 42.5291 158.798 41.9417V26.7102L160.348 26.4252V41.8945C160.348 42.2756 160.385 42.5811 160.456 42.811C160.527 43.041 160.634 43.2236 160.778 43.3591C160.921 43.4945 161.108 43.5937 161.338 43.6567C161.568 43.7197 161.843 43.7764 162.16 43.8236L161.946 45.1087L161.949 45.1071Z" fill="#2E2D2C"/>
<path d="M168.64 43.2268C168.975 42.5449 169.318 41.7638 169.67 40.8819C170.02 40.0016 170.359 39.0898 170.686 38.1449C171.013 37.2016 171.316 36.2488 171.595 35.2898C171.875 34.3291 172.11 33.4299 172.301 32.589H173.853C173.564 33.715 173.243 34.8268 172.893 35.9213C172.541 37.0157 172.168 38.0866 171.777 39.1339C171.384 40.1811 170.977 41.189 170.552 42.1559C170.127 43.1244 169.715 44.0362 169.316 44.8929H167.87C167.453 44.0362 167.038 43.1244 166.621 42.1559C166.205 41.1874 165.801 40.1811 165.409 39.1339C165.016 38.0866 164.645 37.0157 164.293 35.9213C163.941 34.8268 163.621 33.7165 163.333 32.589H164.98C165.171 33.4299 165.406 34.3307 165.685 35.2898C165.965 36.2504 166.268 37.2016 166.595 38.1449C166.921 39.0898 167.261 40.0016 167.611 40.8819C167.962 41.7622 168.306 42.5433 168.64 43.2268Z" fill="#2E2D2C"/>
<path d="M178.266 28.8756C178.266 29.2409 178.154 29.5307 177.932 29.7449C177.709 29.9591 177.439 30.0661 177.12 30.0661C176.802 30.0661 176.532 29.9591 176.309 29.7449C176.086 29.5307 175.974 29.2409 175.974 28.8756C175.974 28.5102 176.085 28.2205 176.309 28.0063C176.532 27.7921 176.802 27.685 177.12 27.685C177.439 27.685 177.709 27.7921 177.932 28.0063C178.154 28.2205 178.266 28.5102 178.266 28.8756ZM177.908 44.8929H176.358V32.589H177.908V44.8929Z" fill="#2E2D2C"/>
<path d="M182.012 33.0173C182.473 32.8898 183.075 32.748 183.813 32.589C184.554 32.4299 185.51 32.3512 186.688 32.3512C188.246 32.3512 189.376 32.8032 190.076 33.7071C190.155 33.6441 190.309 33.537 190.541 33.3858C190.772 33.2346 191.062 33.0803 191.413 32.9213C191.762 32.7622 192.172 32.6283 192.641 32.5165C193.11 32.4063 193.631 32.3496 194.204 32.3496C195.141 32.3496 195.9 32.4882 196.481 32.7654C197.062 33.0425 197.511 33.4315 197.829 33.9307C198.147 34.4299 198.363 35.0299 198.474 35.7276C198.584 36.4268 198.641 37.1874 198.641 38.0126V44.8913H197.091V38.5134C197.091 37.7039 197.054 37.0016 196.983 36.4079C196.912 35.8142 196.769 35.3213 196.554 34.9323C196.339 34.5433 196.033 34.2504 195.635 34.052C195.237 33.8535 194.721 33.7543 194.085 33.7543C193.608 33.7543 193.174 33.7984 192.784 33.885C192.395 33.9732 192.057 34.0787 191.771 34.2063C191.485 34.3339 191.25 34.4598 191.067 34.5874C190.884 34.715 190.753 34.8095 190.674 34.8724C190.818 35.285 190.925 35.7496 190.996 36.2646C191.067 36.7811 191.103 37.3244 191.103 37.8945V44.8913H189.553V38.5134C189.553 37.7039 189.517 37.0016 189.446 36.4079C189.375 35.8126 189.226 35.3213 189.004 34.9323C188.781 34.5433 188.467 34.2504 188.061 34.052C187.656 33.8535 187.119 33.7543 186.451 33.7543C185.703 33.7543 185.072 33.7937 184.554 33.874C184.036 33.9543 183.706 34.0252 183.564 34.0882V44.8929H182.014V33.0173H182.012Z" fill="#2E2D2C"/>
<path d="M201.86 38.7291C201.86 37.6504 202.014 36.7102 202.325 35.9087C202.636 35.1071 203.04 34.4378 203.542 33.8976C204.043 33.3591 204.616 32.9575 205.26 32.6961C205.904 32.4346 206.568 32.3039 207.252 32.3039C208.763 32.3039 209.967 32.7953 210.867 33.7795C211.765 34.7638 212.215 36.2787 212.215 38.326C212.215 38.4535 212.21 38.5795 212.202 38.7071C212.194 38.8346 212.182 38.9528 212.166 39.0646H203.506C203.553 40.5717 203.927 41.7307 204.627 42.5386C205.326 43.348 206.441 43.7528 207.967 43.7528C208.81 43.7528 209.478 43.674 209.97 43.515C210.463 43.3559 210.821 43.222 211.044 43.1102L211.329 44.4425C211.107 44.5701 210.688 44.7197 210.078 44.8945C209.465 45.0693 208.745 45.1559 207.918 45.1559C206.837 45.1559 205.913 44.9969 205.151 44.6803C204.387 44.3638 203.759 43.9181 203.266 43.348C202.774 42.7764 202.415 42.0992 202.193 41.3134C201.97 40.5276 201.858 39.6677 201.858 38.7307L201.86 38.7291ZM210.616 37.7528C210.584 36.4677 210.281 35.4677 209.71 34.7543C209.137 34.0409 208.325 33.6835 207.276 33.6835C206.718 33.6835 206.221 33.7953 205.784 34.0173C205.347 34.2394 204.965 34.537 204.638 34.9102C204.311 35.2835 204.057 35.7165 203.874 36.2079C203.691 36.6992 203.583 37.2158 203.552 37.7543H210.614L210.616 37.7528Z" fill="#2E2D2C"/>
<path d="M215.674 33.0173C216.134 32.8898 216.755 32.748 217.535 32.589C218.314 32.4299 219.268 32.3512 220.397 32.3512C221.334 32.3512 222.119 32.4866 222.747 32.7559C223.375 33.0252 223.876 33.411 224.25 33.9102C224.624 34.4095 224.891 35.0095 225.049 35.7071C225.208 36.4063 225.287 37.1748 225.287 38.0157V44.8945H223.737V38.5165C223.737 37.6441 223.677 36.9071 223.558 36.3039C223.438 35.7008 223.24 35.2095 222.962 34.8283C222.684 34.4472 222.318 34.1732 221.865 34.0079C221.412 33.8409 220.843 33.7575 220.16 33.7575C219.427 33.7575 218.796 33.7969 218.262 33.8772C217.729 33.9575 217.383 34.0283 217.225 34.0913V44.8961H215.675V33.0205L215.674 33.0173Z" fill="#2E2D2C"/>
<path d="M230.703 32.589H235.617V33.8976H230.703V40.4425C230.703 41.1402 230.763 41.7087 230.881 42.1433C231.001 42.5795 231.172 42.9165 231.394 43.1543C231.617 43.3921 231.887 43.5512 232.206 43.6299C232.523 43.7102 232.873 43.7496 233.255 43.7496C233.907 43.7496 234.433 43.674 234.829 43.5228C235.227 43.3717 235.536 43.2331 235.759 43.1071L236.141 44.3921C235.919 44.5354 235.529 44.6976 234.971 44.8803C234.414 45.063 233.811 45.1543 233.158 45.1543C232.394 45.1543 231.754 45.0551 231.236 44.8567C230.719 44.6583 230.307 44.3575 229.996 43.9528C229.686 43.548 229.467 43.0441 229.339 42.4409C229.211 41.8378 229.148 41.1244 229.148 40.2992V28.9701L230.698 28.685V32.589H230.703Z" fill="#2E2D2C"/>
<path d="M249 38.7528C249 39.7213 248.861 40.6016 248.583 41.3953C248.305 42.189 247.916 42.863 247.415 43.4189C246.915 43.9748 246.321 44.4063 245.638 44.7165C244.954 45.0268 244.198 45.1811 243.371 45.1811C242.544 45.1811 241.788 45.0268 241.104 44.7165C240.421 44.4079 239.827 43.9748 239.327 43.4189C238.826 42.863 238.436 42.189 238.158 41.3953C237.881 40.6016 237.742 39.7213 237.742 38.7528C237.742 37.7843 237.881 36.9039 238.158 36.1102C238.436 35.3165 238.826 34.6394 239.327 34.0756C239.827 33.5134 240.421 33.0756 241.104 32.7669C241.788 32.4567 242.544 32.3024 243.371 32.3024C244.198 32.3024 244.954 32.4567 245.638 32.7669C246.321 33.0756 246.915 33.5134 247.415 34.0756C247.916 34.6394 248.305 35.3181 248.583 36.1102C248.861 36.9039 249 37.7843 249 38.7528ZM247.354 38.7528C247.354 37.2142 246.995 35.989 246.28 35.0756C245.565 34.1638 244.594 33.7071 243.369 33.7071C242.144 33.7071 241.175 34.1638 240.458 35.0756C239.743 35.9874 239.385 37.2142 239.385 38.7528C239.385 40.2913 239.743 41.5134 240.458 42.4173C241.174 43.3213 242.144 43.7748 243.369 43.7748C244.594 43.7748 245.563 43.3228 246.28 42.4173C246.997 41.5118 247.354 40.2913 247.354 38.7528Z" fill="#2E2D2C"/>
<path d="M129.184 13.4457C129.184 9.32756 125.707 6.10394 121.737 6.10394C119.424 6.10394 117.508 6.863 116.193 8.29922C115.006 9.59686 114.352 11.4252 114.352 13.4457C114.352 17.6787 117.644 20.8709 122.01 20.8709C125.91 20.8709 127.786 18.5071 128.13 18.0189C128.16 17.978 128.15 17.915 128.109 17.8803L127.977 17.7701C126.787 16.7732 125.176 16.4535 123.683 16.8929C123.137 17.052 122.487 17.1669 121.741 17.1669C120.174 17.1669 118.851 16.578 118.237 15.3165H127.568C128.46 15.3165 129.181 14.3323 129.184 13.4457ZM118.112 12.0047C118.428 10.5984 119.969 9.60001 121.795 9.60001C124.272 9.60001 125.339 11.526 125.478 12.0047H118.112Z" fill="#2E2D2C"/>
<path d="M66.874 7.64882V15.5937C66.874 18.5291 69.2592 20.9087 72.2016 20.9087H79.8923C81.4425 20.9087 82.699 19.6551 82.699 18.1087V17.685C82.699 17.4142 82.4796 17.1953 82.2081 17.1953H72.5521C71.4739 17.1953 70.5994 16.3228 70.5994 15.2472V13.4819H78.0312C79.5814 13.4819 80.8379 12.2284 80.8379 10.6819V10.2583C80.8379 9.98741 80.6185 9.76851 80.347 9.76851H70.5994V8.00315C70.5994 6.92756 71.4739 6.05512 72.5521 6.05512H80.8237C82.3738 6.05512 83.6304 4.80158 83.6304 3.25512V2.8315C83.6304 2.56063 83.411 2.34174 83.1394 2.34174H72.2016C69.2592 2.34174 66.874 4.72126 66.874 7.6567V7.64882Z" fill="#2E2D2C"/>
<path d="M85.9824 20.9071C87.7678 20.9071 89.2153 19.463 89.2153 17.6819V2.8252C89.2153 2.55433 88.9959 2.33543 88.7244 2.33543C86.939 2.33543 85.4915 3.77953 85.4915 5.56063V20.4189C85.4915 20.6898 85.7109 20.9087 85.9824 20.9087V20.9071Z" fill="#2E2D2C"/>
<path d="M92.5034 20.9071C94.2888 20.9071 95.7363 19.463 95.7363 17.6819V2.8252C95.7363 2.55433 95.5169 2.33543 95.2454 2.33543C93.46 2.33543 92.0125 3.77953 92.0125 5.56063V20.4189C92.0125 20.6898 92.2319 20.9087 92.5034 20.9087V20.9071Z" fill="#2E2D2C"/>
<path d="M99.0213 20.9071C100.807 20.9071 102.254 19.463 102.254 17.6819V7.51024C102.254 7.23937 102.035 7.02048 101.763 7.02048C99.9779 7.02048 98.5304 8.46457 98.5304 10.2457V20.4189C98.5304 20.6898 98.7498 20.9087 99.0213 20.9087V20.9071Z" fill="#2E2D2C"/>
<path d="M99.0213 6.04882H100.3C101.38 6.04882 102.254 5.17638 102.254 4.09921V2.85512C102.254 2.58425 102.035 2.36536 101.763 2.36536H100.485C99.4049 2.36536 98.5304 3.2378 98.5304 4.31496V5.55906C98.5304 5.82992 98.7498 6.04882 99.0213 6.04882Z" fill="#2E2D2C"/>
<path d="M112.002 6.0441H110.191C109.92 6.0441 109.7 5.8252 109.7 5.55433V2.8252C109.7 2.55433 109.481 2.33543 109.209 2.33543H109.205C107.422 2.33543 105.978 3.77638 105.978 5.55433C105.978 5.8252 105.759 6.0441 105.487 6.0441H104.608C104.336 6.0441 104.117 6.26299 104.117 6.53386V9.26772C104.117 9.53858 104.336 9.75748 104.608 9.75748H105.487C105.759 9.75748 105.978 9.97638 105.978 10.2472V16.5496C105.978 18.9559 107.932 20.9055 110.344 20.9055H112.003C112.275 20.9055 112.494 20.6866 112.494 20.4157V17.6819C112.494 17.411 112.275 17.1921 112.003 17.1921H110.611C110.109 17.1921 109.702 16.7858 109.702 16.285V10.2472C109.702 9.97638 109.921 9.75748 110.193 9.75748H112.003C112.275 9.75748 112.494 9.53858 112.494 9.26772V6.53386C112.494 6.26299 112.275 6.0441 112.003 6.0441H112.002Z" fill="#2E2D2C"/>
<path d="M26.4329 3.23307L18.8464 45.5543C18.7106 46.3071 19.2915 47 20.0587 47H22.8433C24.5039 47 25.942 45.8488 26.3035 44.2315L33.9926 1.44567C34.1284 0.692913 33.5475 0 32.7803 0H30.4725C28.5324 0 26.8528 1.34331 26.4329 3.23307Z" fill="#2F1C6B"/>
<path d="M50.7995 21.9795L39.8901 12.789C39.5697 12.5181 39.044 12.5181 38.7236 12.789H38.722C36.4647 14.6929 36.4647 17.8047 38.722 19.7071L46.3401 26.126L34.9808 32.5449C32.714 34.4551 32.7156 37.5528 34.9808 39.4614C35.3044 39.7339 35.8254 39.7354 36.149 39.4614L50.2076 30.6409C50.8153 30.2598 51.371 29.789 51.7956 29.211C53.4594 26.9496 53.1263 23.9433 50.798 21.9795H50.7995Z" fill="#6331C6"/>
<path d="M1.04027 17.789C1.46491 17.211 2.02056 16.7402 2.6283 16.3591L16.6869 7.53858C17.0105 7.26614 17.5315 7.26771 17.8535 7.53858H17.8551C20.1203 9.44882 20.1219 12.5465 17.8551 14.4567L6.49577 20.8756L14.1139 27.2945C16.3775 29.2016 16.3791 32.2913 14.1249 34.2016C13.7997 34.4772 13.2725 34.4866 12.9457 34.2126L2.03792 25.0189C-0.292029 23.0567 -0.625104 20.0488 1.04027 17.7874V17.789Z" fill="#6331C6"/>
<g opacity="0.2">
<path d="M26.4329 3.23307L18.8464 45.5543C18.7106 46.3071 19.2915 47 20.0587 47H22.8433C24.5039 47 25.942 45.8488 26.3035 44.2315L33.9926 1.44567C34.1284 0.692913 33.5475 0 32.7803 0H30.4725C28.5324 0 26.8528 1.34331 26.4329 3.23307Z" fill="url(#paint0_linear_2_43)"/>
<path d="M50.7995 21.9795L39.8901 12.789C39.5697 12.5181 39.044 12.5181 38.7236 12.789H38.722C36.4647 14.6929 36.4647 17.8047 38.722 19.7071L46.3401 26.126L34.9808 32.5449C32.714 34.4551 32.7156 37.5528 34.9808 39.4614C35.3044 39.7339 35.8254 39.7354 36.149 39.4614L50.2076 30.6409C50.8153 30.2598 51.371 29.789 51.7956 29.211C53.4594 26.9496 53.1263 23.9433 50.798 21.9795H50.7995Z" fill="url(#paint1_linear_2_43)"/>
<path d="M1.04027 17.789C1.46491 17.211 2.02056 16.7402 2.6283 16.3591L16.6869 7.53858C17.0105 7.26614 17.5315 7.26771 17.8535 7.53858H17.8551C20.1203 9.44882 20.1219 12.5465 17.8551 14.4567L6.49577 20.8756L14.1139 27.2945C16.3775 29.2016 16.3791 32.2913 14.1249 34.2016C13.7997 34.4772 13.2725 34.4866 12.9457 34.2126L2.03792 25.0189C-0.292029 23.0567 -0.625104 20.0488 1.04027 17.7874V17.789Z" fill="url(#paint2_linear_2_43)"/>
</g>
<defs>
<linearGradient id="paint0_linear_2_43" x1="47.4862" y1="2.59685" x2="5.73667" y2="44.4474" gradientUnits="userSpaceOnUse">
<stop stop-opacity="0"/>
<stop offset="1"/>
</linearGradient>
<linearGradient id="paint1_linear_2_43" x1="55.611" y1="10.7024" x2="13.8599" y2="52.5514" gradientUnits="userSpaceOnUse">
<stop stop-opacity="0"/>
<stop offset="1"/>
</linearGradient>
<linearGradient id="paint2_linear_2_43" x1="39.2477" y1="-5.62205" x2="-2.50339" y2="36.2285" gradientUnits="userSpaceOnUse">
<stop stop-opacity="0"/>
<stop offset="1"/>
</linearGradient>
</defs>
</svg>
