<svg width="944" height="178" viewBox="0 0 944 178" fill="none" xmlns="http://www.w3.org/2000/svg">
<path d="M303.394 138.744C303.394 144.094 302.55 148.752 300.862 152.712C299.175 156.678 296.805 159.982 293.765 162.63C290.718 165.272 287.086 167.259 282.867 168.577C278.648 169.901 274.004 170.557 268.941 170.557C266.409 170.557 263.752 170.42 260.981 170.151C258.204 169.883 255.763 169.477 253.656 168.934V108.72C255.769 108.118 258.21 107.683 260.981 107.414C263.752 107.146 266.409 107.009 268.941 107.009C274.004 107.009 278.648 107.671 282.867 108.989C287.086 110.313 290.718 112.293 293.765 114.935C296.811 117.583 299.175 120.881 300.862 124.848C302.55 128.814 303.394 133.442 303.394 138.726V138.744ZM259.802 164.61C260.161 164.67 261.083 164.789 262.561 164.968C264.039 165.147 266.403 165.237 269.659 165.237C274.183 165.237 278.127 164.622 281.508 163.388C284.883 162.159 287.72 160.4 290.012 158.116C292.304 155.831 294.022 153.052 295.171 149.778C296.314 146.503 296.888 142.823 296.888 138.738C296.888 134.653 296.314 130.985 295.171 127.74C294.022 124.496 292.304 121.734 290.012 119.45C287.72 117.166 284.889 115.406 281.508 114.178C278.133 112.949 274.183 112.329 269.659 112.329C266.403 112.329 264.039 112.418 262.561 112.597C261.083 112.776 260.161 112.901 259.802 112.955V164.605V164.61Z" fill="white"/>
<path d="M313.974 146.676C313.974 142.591 314.561 139.03 315.74 135.995C316.919 132.959 318.451 130.424 320.354 128.378C322.251 126.339 324.423 124.818 326.865 123.828C329.307 122.838 331.826 122.343 334.418 122.343C340.145 122.343 344.711 124.203 348.122 127.931C351.528 131.659 353.233 137.396 353.233 145.149C353.233 145.633 353.215 146.11 353.185 146.593C353.155 147.076 353.108 147.523 353.048 147.947H320.216C320.396 153.654 321.814 158.044 324.465 161.104C327.117 164.169 331.342 165.702 337.129 165.702C340.325 165.702 342.856 165.404 344.723 164.801C346.59 164.199 347.949 163.692 348.793 163.269L349.876 168.314C349.032 168.797 347.446 169.364 345.13 170.026C342.808 170.688 340.079 171.016 336.943 171.016C332.844 171.016 329.343 170.414 326.452 169.215C323.556 168.016 321.174 166.328 319.307 164.169C317.44 162.004 316.081 159.44 315.237 156.463C314.393 153.487 313.968 150.231 313.968 146.682L313.974 146.676ZM347.171 142.979C347.051 138.112 345.902 134.325 343.736 131.623C341.563 128.921 338.487 127.567 334.508 127.567C332.395 127.567 330.51 127.991 328.852 128.832C327.194 129.672 325.746 130.8 324.507 132.213C323.268 133.627 322.305 135.267 321.611 137.128C320.917 138.988 320.51 140.945 320.39 142.984H347.165L347.171 142.979Z" fill="white"/>
<path d="M375.927 165.875C379.302 165.875 382.091 165.32 384.293 164.205C386.495 163.096 387.597 161.217 387.597 158.569C387.597 157.304 387.399 156.225 387.01 155.324C386.615 154.424 385.969 153.613 385.065 152.891C384.161 152.169 382.971 151.477 381.492 150.821C380.014 150.159 378.189 149.378 376.022 148.477C374.275 147.756 372.617 147.022 371.049 146.271C369.481 145.519 368.093 144.648 366.89 143.658C365.681 142.668 364.718 141.482 363.993 140.098C363.269 138.714 362.91 137.032 362.91 135.052C362.91 131.265 364.341 128.199 367.207 125.855C370.068 123.512 374.006 122.343 379.009 122.343C382.204 122.343 384.844 122.611 386.92 123.154C389.003 123.696 390.463 124.174 391.307 124.597L389.949 129.828C389.224 129.47 388.004 128.987 386.286 128.384C384.568 127.782 382.049 127.484 378.733 127.484C377.405 127.484 376.154 127.621 374.981 127.889C373.802 128.158 372.767 128.581 371.863 129.154C370.959 129.726 370.235 130.448 369.691 131.319C369.146 132.189 368.877 133.257 368.877 134.521C368.877 135.786 369.116 136.871 369.601 137.772C370.086 138.678 370.792 139.472 371.726 140.163C372.659 140.855 373.808 141.499 375.161 142.096C376.519 142.692 378.069 143.354 379.817 144.07C381.624 144.786 383.36 145.519 385.017 146.265C386.675 147.01 388.135 147.911 389.404 148.967C390.673 150.016 391.696 151.281 392.48 152.754C393.264 154.227 393.653 156.076 393.653 158.294C393.653 162.499 392.073 165.684 388.907 167.849C385.741 170.014 381.415 171.094 375.927 171.094C371.827 171.094 368.691 170.748 366.519 170.056C364.347 169.364 362.904 168.839 362.18 168.481L363.718 163.161C363.898 163.28 364.293 163.477 364.897 163.746C365.502 164.014 366.315 164.318 367.339 164.646C368.362 164.974 369.583 165.261 371.001 165.505C372.42 165.744 374.059 165.863 375.933 165.863L375.927 165.875Z" fill="white"/>
<path d="M402.247 146.676C402.247 142.591 402.833 139.03 404.012 135.995C405.191 132.959 406.723 130.424 408.626 128.378C410.523 126.339 412.696 124.818 415.138 123.828C417.579 122.838 420.099 122.343 422.69 122.343C428.417 122.343 432.984 124.203 436.395 127.931C439.8 131.659 441.506 137.396 441.506 145.149C441.506 145.633 441.488 146.11 441.458 146.593C441.428 147.076 441.38 147.523 441.32 147.947H408.489C408.668 153.654 410.087 158.044 412.738 161.104C415.389 164.169 419.614 165.702 425.401 165.702C428.597 165.702 431.128 165.404 432.996 164.801C434.863 164.199 436.221 163.692 437.065 163.269L438.148 168.314C437.304 168.797 435.719 169.364 433.403 170.026C431.081 170.688 428.352 171.016 425.216 171.016C421.116 171.016 417.615 170.414 414.725 169.215C411.828 168.016 409.446 166.328 407.579 164.169C405.712 162.004 404.353 159.44 403.51 156.463C402.666 153.487 402.241 150.231 402.241 146.682L402.247 146.676ZM435.443 142.979C435.324 138.112 434.175 134.325 432.008 131.623C429.836 128.921 426.76 127.567 422.78 127.567C420.667 127.567 418.782 127.991 417.124 128.832C415.467 129.672 414.018 130.8 412.78 132.213C411.541 133.627 410.577 135.267 409.883 137.128C409.189 138.988 408.782 140.945 408.662 142.984H435.437L435.443 142.979Z" fill="white"/>
<path d="M454.612 125.044C456.359 124.561 458.711 124.024 461.668 123.422C464.624 122.82 468.239 122.521 472.518 122.521C476.072 122.521 479.047 123.034 481.429 124.054C483.811 125.074 485.708 126.535 487.126 128.426C488.544 130.317 489.55 132.589 490.154 135.231C490.759 137.879 491.058 140.79 491.058 143.975V170.026H485.181V145.871C485.181 142.567 484.954 139.776 484.505 137.491C484.05 135.207 483.296 133.346 482.243 131.903C481.189 130.46 479.801 129.422 478.083 128.796C476.366 128.164 474.205 127.847 471.614 127.847C468.843 127.847 466.443 127.997 464.421 128.301C462.398 128.605 461.087 128.873 460.489 129.112V170.032H454.612V125.056V125.044Z" fill="white"/>
<path d="M520.227 163.71C521.495 161.127 522.794 158.169 524.129 154.829C525.457 151.495 526.744 148.042 527.983 144.464C529.221 140.891 530.37 137.283 531.43 133.651C532.489 130.012 533.381 126.607 534.105 123.422H539.988C538.893 127.686 537.684 131.897 536.349 136.042C535.014 140.187 533.602 144.243 532.118 148.209C530.628 152.175 529.084 155.992 527.474 159.654C525.864 163.322 524.302 166.775 522.788 170.02H517.306C515.726 166.775 514.146 163.322 512.572 159.654C510.998 155.986 509.466 152.175 507.976 148.209C506.492 144.243 505.08 140.187 503.745 136.042C502.411 131.897 501.196 127.692 500.107 123.422H506.348C507.073 126.607 507.964 130.018 509.024 133.651C510.083 137.289 511.232 140.891 512.471 144.464C513.709 148.042 514.996 151.495 516.325 154.829C517.653 158.163 518.958 161.121 520.227 163.71Z" fill="white"/>
<path d="M589.372 146.766C589.372 150.434 588.846 153.768 587.792 156.774C586.739 159.78 585.261 162.332 583.358 164.438C581.461 166.543 579.211 168.177 576.619 169.352C574.028 170.527 571.161 171.111 568.025 171.111C564.889 171.111 562.023 170.527 559.432 169.352C556.84 168.183 554.59 166.543 552.693 164.438C550.796 162.332 549.318 159.78 548.264 156.774C547.211 153.768 546.684 150.434 546.684 146.766C546.684 143.098 547.211 139.764 548.264 136.758C549.318 133.752 550.796 131.187 552.693 129.052C554.59 126.923 556.84 125.265 559.432 124.096C562.023 122.921 564.889 122.337 568.025 122.337C571.161 122.337 574.022 122.921 576.619 124.096C579.211 125.265 581.461 126.923 583.358 129.052C585.255 131.187 586.733 133.758 587.792 136.758C588.846 139.764 589.372 143.098 589.372 146.766ZM583.13 146.766C583.13 140.939 581.772 136.299 579.061 132.839C576.35 129.386 572.669 127.657 568.025 127.657C563.381 127.657 559.707 129.386 556.99 132.839C554.279 136.293 552.92 140.939 552.92 146.766C552.92 152.593 554.279 157.221 556.99 160.644C559.701 164.068 563.381 165.785 568.025 165.785C572.669 165.785 576.344 164.074 579.061 160.644C581.772 157.221 583.13 152.593 583.13 146.766Z" fill="white"/>
<path d="M613.975 170.831C611.982 170.771 610.252 170.515 608.774 170.068C607.296 169.614 606.063 168.929 605.064 167.992C604.07 167.062 603.316 165.857 602.802 164.39C602.287 162.917 602.03 161.068 602.03 158.843V101.158L607.907 100.078V158.664C607.907 160.108 608.044 161.265 608.313 162.135C608.583 163.006 608.99 163.698 609.534 164.211C610.079 164.724 610.785 165.1 611.659 165.338C612.533 165.577 613.574 165.791 614.777 165.97L613.963 170.837L613.975 170.831Z" fill="white"/>
<path d="M639.344 163.71C640.612 161.127 641.911 158.169 643.245 154.829C644.574 151.495 645.861 148.042 647.1 144.464C648.338 140.891 649.487 137.283 650.547 133.651C651.606 130.012 652.498 126.607 653.222 123.422H659.105C658.009 127.686 656.795 131.897 655.466 136.042C654.131 140.187 652.719 144.243 651.235 148.209C649.745 152.175 648.201 155.992 646.591 159.654C644.981 163.322 643.419 166.775 641.905 170.02H636.423C634.843 166.775 633.269 163.322 631.689 159.654C630.109 155.986 628.577 152.175 627.093 148.209C625.603 144.243 624.197 140.187 622.862 136.042C621.527 131.897 620.313 127.692 619.223 123.422H625.465C626.189 126.607 627.081 130.018 628.14 133.651C629.2 137.289 630.349 140.891 631.588 144.464C632.826 148.042 634.113 151.495 635.442 154.829C636.77 158.163 638.075 161.121 639.344 163.71Z" fill="white"/>
<path d="M675.837 109.359C675.837 110.742 675.413 111.84 674.569 112.651C673.725 113.462 672.702 113.868 671.493 113.868C670.284 113.868 669.26 113.462 668.417 112.651C667.573 111.84 667.148 110.742 667.148 109.359C667.148 107.975 667.567 106.878 668.417 106.066C669.26 105.255 670.284 104.85 671.493 104.85C672.702 104.85 673.725 105.255 674.569 106.066C675.413 106.878 675.837 107.975 675.837 109.359ZM674.479 170.02H668.602V123.422H674.479V170.02Z" fill="white"/>
<path d="M690.039 125.044C691.786 124.561 694.066 124.024 696.867 123.422C699.674 122.82 703.301 122.521 707.765 122.521C713.672 122.521 717.957 124.233 720.608 127.657C720.907 127.418 721.494 127.012 722.373 126.44C723.247 125.867 724.348 125.283 725.677 124.681C726.999 124.078 728.555 123.571 730.333 123.148C732.11 122.73 734.085 122.516 736.258 122.516C739.812 122.516 742.691 123.04 744.893 124.09C747.096 125.14 748.795 126.613 750.004 128.504C751.207 130.394 752.027 132.667 752.446 135.309C752.865 137.957 753.08 140.837 753.08 143.963V170.014H747.203V145.859C747.203 142.794 747.066 140.134 746.796 137.885C746.527 135.637 745.983 133.77 745.169 132.297C744.355 130.824 743.194 129.714 741.686 128.963C740.178 128.211 738.221 127.836 735.809 127.836C734.001 127.836 732.356 128.003 730.878 128.331C729.399 128.665 728.119 129.064 727.035 129.547C725.952 130.03 725.061 130.507 724.366 130.991C723.672 131.474 723.175 131.832 722.876 132.07C723.421 133.633 723.828 135.392 724.097 137.342C724.366 139.299 724.504 141.356 724.504 143.515V170.014H718.627V145.859C718.627 142.794 718.489 140.134 718.22 137.885C717.951 135.631 717.388 133.77 716.544 132.297C715.701 130.824 714.51 129.714 712.972 128.963C711.434 128.211 709.399 127.836 706.867 127.836C704.031 127.836 701.637 127.985 699.674 128.289C697.711 128.593 696.46 128.861 695.922 129.1V170.02H690.045V125.044H690.039Z" fill="white"/>
<path d="M765.283 146.676C765.283 142.591 765.869 139.03 767.048 135.995C768.227 132.959 769.759 130.424 771.662 128.378C773.559 126.339 775.732 124.818 778.174 123.828C780.615 122.838 783.135 122.343 785.726 122.343C791.453 122.343 796.019 124.203 799.431 127.931C802.836 131.659 804.542 137.396 804.542 145.149C804.542 145.633 804.524 146.11 804.494 146.593C804.464 147.076 804.416 147.523 804.356 147.947H771.525C771.704 153.654 773.123 158.044 775.774 161.104C778.425 164.169 782.65 165.702 788.437 165.702C791.633 165.702 794.164 165.404 796.032 164.801C797.899 164.199 799.257 163.692 800.101 163.269L801.184 168.314C800.34 168.797 798.754 169.364 796.438 170.026C794.116 170.688 791.387 171.016 788.252 171.016C784.152 171.016 780.651 170.414 777.761 169.215C774.864 168.016 772.482 166.328 770.615 164.169C768.748 162.004 767.389 159.44 766.546 156.463C765.702 153.487 765.277 150.231 765.277 146.682L765.283 146.676ZM798.479 142.979C798.359 138.112 797.21 134.325 795.044 131.623C792.872 128.921 789.796 127.567 785.816 127.567C783.703 127.567 781.818 127.991 780.16 128.832C778.503 129.672 777.054 130.8 775.816 132.213C774.577 133.627 773.613 135.267 772.919 137.128C772.225 138.988 771.818 140.945 771.698 142.984H798.473L798.479 142.979Z" fill="white"/>
<path d="M817.654 125.044C819.401 124.561 821.753 124.024 824.71 123.422C827.666 122.82 831.281 122.521 835.56 122.521C839.114 122.521 842.089 123.034 844.471 124.054C846.852 125.074 848.75 126.535 850.168 128.426C851.586 130.317 852.598 132.589 853.196 135.231C853.801 137.879 854.1 140.79 854.1 143.975V170.026H848.223V145.871C848.223 142.567 847.995 139.776 847.547 137.491C847.092 135.207 846.338 133.346 845.284 131.903C844.231 130.46 842.843 129.422 841.125 128.796C839.408 128.164 837.253 127.847 834.662 127.847C831.885 127.847 829.491 127.997 827.468 128.301C825.446 128.605 824.135 128.873 823.537 129.112V170.032H817.66V125.056L817.654 125.044Z" fill="white"/>
<path d="M874.633 123.422H893.263V128.378H874.633V153.165C874.633 155.807 874.86 157.96 875.309 159.607C875.764 161.259 876.41 162.535 877.254 163.436C878.098 164.336 879.121 164.939 880.33 165.237C881.533 165.541 882.862 165.69 884.31 165.69C886.782 165.69 888.774 165.404 890.276 164.831C891.785 164.259 892.958 163.734 893.801 163.257L895.25 168.123C894.406 168.666 892.928 169.28 890.815 169.972C888.703 170.664 886.416 171.01 883.939 171.01C881.042 171.01 878.619 170.634 876.656 169.883C874.693 169.131 873.131 167.992 871.952 166.459C870.779 164.927 869.947 163.018 869.462 160.734C868.977 158.45 868.738 155.748 868.738 152.623V109.716L874.615 108.637V123.422H874.633Z" fill="white"/>
<path d="M944 146.766C944 150.434 943.473 153.768 942.42 156.774C941.367 159.78 939.889 162.332 937.991 164.438C936.094 166.543 933.844 168.177 931.253 169.352C928.662 170.527 925.795 171.111 922.659 171.111C919.523 171.111 916.656 170.527 914.065 169.352C911.474 168.183 909.224 166.543 907.327 164.438C905.429 162.332 903.951 159.78 902.898 156.774C901.845 153.768 901.318 150.434 901.318 146.766C901.318 143.098 901.845 139.764 902.898 136.758C903.951 133.752 905.429 131.187 907.327 129.052C909.224 126.923 911.474 125.265 914.065 124.096C916.656 122.921 919.523 122.337 922.659 122.337C925.795 122.337 928.662 122.921 931.253 124.096C933.844 125.265 936.094 126.923 937.991 129.052C939.889 131.187 941.367 133.758 942.42 136.758C943.473 139.764 944 143.098 944 146.766ZM937.758 146.766C937.758 140.939 936.4 136.299 933.689 132.839C930.978 129.386 927.297 127.657 922.653 127.657C918.009 127.657 914.334 129.386 911.617 132.839C908.906 136.293 907.548 140.939 907.548 146.766C907.548 152.593 908.906 157.221 911.617 160.644C914.328 164.068 918.009 165.785 922.653 165.785C927.297 165.785 930.972 164.074 933.689 160.644C936.406 157.215 937.758 152.593 937.758 146.766Z" fill="white"/>
<path d="M489.759 50.9219C489.759 35.3256 476.575 23.117 461.524 23.117C452.757 23.117 445.491 25.9918 440.506 31.4311C436.006 36.3455 433.528 43.2699 433.528 50.9219C433.528 66.9535 446.006 79.0428 462.559 79.0428C477.347 79.0428 484.457 70.0907 485.761 68.2418C485.875 68.0867 485.839 67.8481 485.684 67.7169L485.181 67.2994C480.669 63.5241 474.564 62.3134 468.903 63.9774C466.832 64.5798 464.367 65.0152 461.542 65.0152C455.599 65.0152 450.584 62.7846 448.256 58.0073H483.631C487.012 58.0073 489.747 54.2797 489.759 50.9219ZM447.783 45.4647C448.98 40.1387 454.821 36.3574 461.745 36.3574C471.135 36.3574 475.181 43.6516 475.707 45.4647H447.783Z" fill="white"/>
<path d="M253.53 28.9679V59.057C253.53 70.1742 262.573 79.186 273.728 79.186H302.885C308.762 79.186 313.526 74.4385 313.526 68.5817V66.9774C313.526 65.9515 312.694 65.1225 311.664 65.1225H275.057C270.969 65.1225 267.654 61.8184 267.654 57.7449V51.0591H295.829C301.706 51.0591 306.47 46.3116 306.47 40.4548V38.8505C306.47 37.8246 305.638 36.9956 304.609 36.9956H267.654V30.3098C267.654 26.2363 270.969 22.9321 275.057 22.9321H306.416C312.293 22.9321 317.056 18.1847 317.056 12.3279V10.7235C317.056 9.6977 316.225 8.86868 315.195 8.86868H273.728C262.573 8.86868 253.53 17.8805 253.53 28.9977V28.9679Z" fill="white"/>
<path d="M325.974 79.18C332.742 79.18 338.23 73.7109 338.23 66.9655V10.6997C338.23 9.67385 337.398 8.84483 336.369 8.84483C329.6 8.84483 324.112 14.314 324.112 21.0594V77.3311C324.112 78.357 324.944 79.186 325.974 79.186V79.18Z" fill="white"/>
<path d="M350.696 79.18C357.464 79.18 362.952 73.7109 362.952 66.9655V10.6997C362.952 9.67385 362.12 8.84483 361.091 8.84483C354.322 8.84483 348.835 14.314 348.835 21.0594V77.3311C348.835 78.357 349.666 79.186 350.696 79.186V79.18Z" fill="white"/>
<path d="M375.406 79.18C382.175 79.18 387.662 73.7109 387.662 66.9655V28.443C387.662 27.4172 386.831 26.5882 385.801 26.5882C379.033 26.5882 373.545 32.0573 373.545 38.8027V77.3311C373.545 78.357 374.377 79.186 375.406 79.186V79.18Z" fill="white"/>
<path d="M375.406 22.9083H380.254C384.347 22.9083 387.662 19.6041 387.662 15.5247V10.813C387.662 9.78716 386.831 8.95815 385.801 8.95815H380.954C376.86 8.95815 373.545 12.2623 373.545 16.3418V21.0534C373.545 22.0793 374.377 22.9083 375.406 22.9083Z" fill="white"/>
<path d="M424.617 22.8904H417.753C416.723 22.8904 415.892 22.0614 415.892 21.0356V10.6997C415.892 9.67385 415.06 8.84483 414.03 8.84483H414.012C407.256 8.84483 401.78 14.302 401.78 21.0356C401.78 22.0614 400.948 22.8904 399.919 22.8904H396.585C395.556 22.8904 394.724 23.7194 394.724 24.7453V35.099C394.724 36.1248 395.556 36.9539 396.585 36.9539H399.919C400.948 36.9539 401.78 37.7829 401.78 38.8087V62.6772C401.78 71.7904 409.189 79.1741 418.333 79.1741H424.623C425.652 79.1741 426.484 78.345 426.484 77.3192V66.9655C426.484 65.9396 425.652 65.1106 424.623 65.1106H419.345C417.442 65.1106 415.898 63.5719 415.898 61.6753V38.8087C415.898 37.7829 416.729 36.9539 417.759 36.9539H424.623C425.652 36.9539 426.484 36.1248 426.484 35.099V24.7453C426.484 23.7194 425.652 22.8904 424.623 22.8904H424.617Z" fill="white"/>
<path d="M100.212 12.2444L71.4498 172.525C70.9351 175.376 73.1374 178 76.0459 178H86.6027C92.8985 178 98.3504 173.64 99.7209 167.515L128.872 5.47509C129.386 2.62423 127.184 0 124.276 0H115.526C108.171 0 101.804 5.08742 100.212 12.2444Z" fill="#5E2EBC"/>
<path d="M192.589 83.2416L151.23 48.4348C150.015 47.409 148.022 47.409 146.807 48.4348H146.801C138.244 55.6455 138.244 67.4307 146.801 74.6353L175.683 98.9452L132.618 123.255C124.024 130.49 124.03 142.221 132.618 149.45C133.845 150.481 135.82 150.487 137.047 149.45L190.345 116.044C192.649 114.601 194.756 112.818 196.366 110.629C202.673 102.064 201.411 90.6789 192.583 83.2416H192.589Z" fill="#6331C6"/>
<path d="M3.94384 67.371C5.55369 65.1822 7.66025 63.3989 9.96431 61.9556L63.2629 28.5504C64.4897 27.5186 66.4646 27.5245 67.6855 28.5504H67.6915C76.2793 35.7849 76.2853 47.5164 67.6915 54.7509L24.6265 79.0607L53.508 103.371C62.0899 110.593 62.0959 122.295 53.5499 129.529C52.3171 130.573 50.3183 130.609 49.0795 129.571L7.72609 94.7524C-1.10714 87.3211 -2.36988 75.9296 3.94384 67.365V67.371Z" fill="#6331C6"/>
<g opacity="0.2">
<path d="M192.589 83.2416L151.23 48.4348C150.015 47.409 148.022 47.409 146.807 48.4348H146.801C138.244 55.6455 138.244 67.4307 146.801 74.6353L175.683 98.9452L132.618 123.255C124.024 130.49 124.03 142.221 132.618 149.45C133.845 150.481 135.82 150.487 137.047 149.45L190.345 116.044C192.649 114.601 194.756 112.818 196.366 110.629C202.673 102.064 201.411 90.6789 192.583 83.2416H192.589Z" fill="url(#paint0_linear_1_6)"/>
<path d="M3.94384 67.371C5.55369 65.1822 7.66025 63.3989 9.96431 61.9556L63.2629 28.5504C64.4897 27.5186 66.4646 27.5245 67.6855 28.5504H67.6915C76.2793 35.7849 76.2853 47.5164 67.6915 54.7509L24.6265 79.0607L53.508 103.371C62.0899 110.593 62.0959 122.295 53.5499 129.529C52.3171 130.573 50.3183 130.609 49.0795 129.571L7.72609 94.7524C-1.10714 87.3211 -2.36988 75.9296 3.94384 67.365V67.371Z" fill="url(#paint1_linear_1_6)"/>
</g>
<defs>
<linearGradient id="paint0_linear_1_6" x1="210.83" y1="40.5323" x2="52.7098" y2="199.188" gradientUnits="userSpaceOnUse">
<stop stop-opacity="0"/>
<stop offset="1"/>
</linearGradient>
<linearGradient id="paint1_linear_1_6" x1="148.794" y1="-21.292" x2="-9.3262" y2="137.37" gradientUnits="userSpaceOnUse">
<stop stop-opacity="0"/>
<stop offset="1"/>
</linearGradient>
</defs>
</svg>
