<?xml version="1.0" standalone="no"?>
<!DOCTYPE svg PUBLIC "-//W3C//DTD SVG 20010904//EN"
 "http://www.w3.org/TR/2001/REC-SVG-20010904/DTD/svg10.dtd">
<svg version="1.0" xmlns="http://www.w3.org/2000/svg"
 width="588.000000pt" height="588.000000pt" viewBox="0 0 588.000000 588.000000"
 preserveAspectRatio="xMidYMid meet">
<metadata>
Created by potrace 1.14, written by Peter Selinger 2001-2017
</metadata>
<g transform="translate(0.000000,588.000000) scale(0.100000,-0.100000)"
fill="#000000" stroke="none">
<path d="M3241 5524 c-159 -57 -283 -200 -305 -349 -4 -23 -9 -52 -11 -65 -3
-14 -8 -38 -10 -55 -6 -35 -22 -121 -28 -150 -4 -20 -20 -111 -22 -130 -1 -5
-5 -28 -9 -50 -14 -72 -55 -299 -60 -330 -10 -52 -47 -259 -51 -285 -3 -14
-23 -126 -45 -250 -22 -124 -42 -236 -45 -250 -40 -224 -67 -371 -71 -395 -8
-48 -53 -298 -58 -321 -2 -12 -7 -37 -10 -55 -3 -19 -10 -59 -16 -89 -6 -30
-13 -71 -16 -90 -3 -19 -18 -107 -34 -195 -16 -88 -31 -173 -34 -189 -3 -16
-10 -52 -15 -80 -6 -28 -13 -69 -16 -91 -3 -22 -7 -47 -10 -55 -2 -8 -7 -31
-9 -50 -5 -35 -7 -47 -26 -145 -5 -27 -12 -66 -15 -85 -3 -19 -14 -80 -25
-135 -10 -55 -21 -120 -25 -145 -4 -25 -13 -74 -20 -110 -7 -36 -16 -85 -20
-110 -4 -25 -11 -67 -16 -95 -6 -27 -12 -59 -14 -70 -6 -36 -17 -97 -21 -119
-2 -11 -13 -73 -24 -136 -11 -63 -22 -126 -25 -140 -5 -26 -19 -104 -32 -175
-17 -98 -1 -148 60 -186 30 -19 47 -20 252 -17 215 3 221 4 277 30 76 36 121
70 163 128 56 76 60 92 135 515 11 61 22 121 25 135 4 21 19 103 49 275 22
122 66 364 69 380 3 11 8 40 12 65 4 25 9 54 11 65 2 11 13 72 24 135 22 120
67 370 95 525 31 170 57 316 61 344 2 18 6 36 9 40 2 4 7 30 10 57 4 27 8 56
10 64 3 8 18 92 34 185 17 94 39 220 50 280 11 61 23 124 26 140 3 17 12 71
21 120 9 50 18 97 19 105 1 8 5 29 8 45 4 17 9 46 12 65 5 31 49 276 61 340 2
14 11 61 19 105 58 323 59 327 75 420 5 28 21 115 35 195 30 167 31 174 46
258 13 73 7 113 -21 149 -39 50 -60 54 -260 52 -166 -1 -192 -4 -249 -25z"/>
<path d="M1877 4725 c-12 -7 -103 -63 -202 -125 -99 -63 -206 -130 -238 -149
-31 -20 -240 -151 -463 -291 -224 -140 -421 -264 -440 -275 -96 -58 -273 -172
-309 -199 -95 -72 -181 -207 -209 -327 -34 -143 -3 -314 79 -438 56 -84 89
-116 375 -355 58 -48 119 -100 136 -114 17 -15 52 -45 79 -67 41 -34 120 -101
235 -198 14 -12 50 -42 80 -66 30 -25 57 -47 60 -50 3 -4 32 -29 65 -56 33
-28 62 -52 65 -55 3 -3 45 -39 95 -80 49 -41 99 -83 110 -94 39 -36 80 -56
117 -56 31 0 45 8 95 59 164 164 195 397 80 594 -34 57 -90 114 -232 232 -66
55 -122 102 -125 105 -3 3 -30 25 -60 50 -55 45 -103 86 -124 105 -6 6 -65 56
-131 110 -66 55 -126 106 -134 113 -8 8 -45 38 -82 69 -38 30 -69 58 -69 62 0
7 14 16 80 53 57 32 284 159 330 185 71 40 368 208 470 266 58 32 163 91 235
130 139 77 212 139 259 219 75 129 90 281 39 411 -35 88 -150 235 -186 238 -7
0 -22 2 -35 3 -12 2 -33 -3 -45 -9z"/>
<path d="M4264 4086 c-68 -69 -114 -150 -134 -236 -13 -52 -15 -141 -6 -185
20 -94 57 -171 115 -237 23 -25 108 -102 189 -169 81 -68 149 -126 152 -129 3
-3 75 -64 160 -135 180 -151 199 -166 214 -180 6 -6 50 -43 98 -83 48 -40 89
-76 92 -80 3 -5 -18 -21 -47 -36 -29 -15 -59 -31 -67 -36 -19 -12 -100 -58
-176 -101 -59 -32 -94 -52 -156 -87 -99 -56 -756 -427 -773 -436 -35 -19 -69
-49 -112 -101 -47 -57 -68 -96 -93 -172 -22 -68 -20 -217 4 -282 40 -108 141
-232 205 -251 38 -11 63 -3 135 44 46 30 478 302 683 430 45 28 142 88 215
134 414 258 608 381 652 411 234 162 321 455 210 708 -44 102 -106 174 -248
293 -49 41 -137 115 -195 164 -145 121 -188 157 -311 261 -58 50 -127 108
-154 130 -51 42 -75 62 -116 98 -14 12 -65 55 -115 96 -49 41 -92 77 -95 81
-3 3 -45 38 -93 78 -78 64 -93 72 -130 72 -37 0 -47 -6 -103 -64z"/>
</g>
</svg>
